<mxfile host="app.diagrams.net" modified="2023-12-29T01:58:10.290Z" agent="Mozilla/5.0 (Windows NT 10.0; Win64; x64) AppleWebKit/537.36 (KHTML, like Gecko) Chrome/120.0.0.0 Safari/537.36" etag="sd7OD3NRlheLcDBRXmG8" version="22.1.15" type="github">
  <diagram id="C5RBs43oDa-KdzZeNtuy" name="Page-1">
    <mxGraphModel dx="2261" dy="738" grid="1" gridSize="10" guides="1" tooltips="1" connect="1" arrows="1" fold="1" page="1" pageScale="1" pageWidth="827" pageHeight="1169" background="#ffffff" math="0" shadow="0">
      <root>
        <mxCell id="WIyWlLk6GJQsqaUBKTNV-0" />
        <mxCell id="WIyWlLk6GJQsqaUBKTNV-1" parent="WIyWlLk6GJQsqaUBKTNV-0" />
        <mxCell id="-poH_1AGBU1u-PjEJNl7-34" value="배포승인&lt;br&gt;(사후)" style="rounded=1;whiteSpace=wrap;html=1;fontSize=12;glass=0;strokeWidth=1;shadow=0;fontStyle=0;fillColor=#fff2cc;strokeColor=#d6b656;" parent="WIyWlLk6GJQsqaUBKTNV-1" vertex="1">
          <mxGeometry x="177.5" y="655" width="70" height="40" as="geometry" />
        </mxCell>
        <mxCell id="bHrff5qwEhBtDLo3kuQc-10" style="edgeStyle=orthogonalEdgeStyle;rounded=0;orthogonalLoop=1;jettySize=auto;html=1;exitX=1;exitY=0.5;exitDx=0;exitDy=0;entryX=0;entryY=0.5;entryDx=0;entryDy=0;" parent="WIyWlLk6GJQsqaUBKTNV-1" source="WIyWlLk6GJQsqaUBKTNV-3" target="bHrff5qwEhBtDLo3kuQc-8" edge="1">
          <mxGeometry relative="1" as="geometry" />
        </mxCell>
        <mxCell id="WIyWlLk6GJQsqaUBKTNV-3" value="요청" style="rounded=1;whiteSpace=wrap;html=1;fontSize=12;glass=0;strokeWidth=1;shadow=0;fillColor=#EFF4FC;strokeColor=#6c8ebf;" parent="WIyWlLk6GJQsqaUBKTNV-1" vertex="1">
          <mxGeometry x="-800" y="420" width="50" height="40" as="geometry" />
        </mxCell>
        <mxCell id="bHrff5qwEhBtDLo3kuQc-9" style="edgeStyle=orthogonalEdgeStyle;rounded=0;orthogonalLoop=1;jettySize=auto;html=1;entryX=0;entryY=0.5;entryDx=0;entryDy=0;" parent="WIyWlLk6GJQsqaUBKTNV-1" source="bHrff5qwEhBtDLo3kuQc-37" target="bHrff5qwEhBtDLo3kuQc-13" edge="1">
          <mxGeometry relative="1" as="geometry">
            <mxPoint x="-560" y="440" as="targetPoint" />
            <mxPoint x="-620" y="440" as="sourcePoint" />
          </mxGeometry>
        </mxCell>
        <mxCell id="bHrff5qwEhBtDLo3kuQc-45" style="edgeStyle=orthogonalEdgeStyle;rounded=0;orthogonalLoop=1;jettySize=auto;html=1;exitX=1;exitY=0.5;exitDx=0;exitDy=0;entryX=0;entryY=0.5;entryDx=0;entryDy=0;" parent="WIyWlLk6GJQsqaUBKTNV-1" source="bHrff5qwEhBtDLo3kuQc-8" target="bHrff5qwEhBtDLo3kuQc-37" edge="1">
          <mxGeometry relative="1" as="geometry" />
        </mxCell>
        <mxCell id="bHrff5qwEhBtDLo3kuQc-8" value="요청접수" style="rounded=1;whiteSpace=wrap;html=1;fontSize=12;glass=0;strokeWidth=1;shadow=0;fillColor=#EFF4FC;strokeColor=#6c8ebf;" parent="WIyWlLk6GJQsqaUBKTNV-1" vertex="1">
          <mxGeometry x="-720" y="420" width="60" height="40" as="geometry" />
        </mxCell>
        <mxCell id="bHrff5qwEhBtDLo3kuQc-43" style="edgeStyle=orthogonalEdgeStyle;rounded=0;orthogonalLoop=1;jettySize=auto;html=1;exitX=1;exitY=0.5;exitDx=0;exitDy=0;entryX=0;entryY=0.5;entryDx=0;entryDy=0;" parent="WIyWlLk6GJQsqaUBKTNV-1" source="bHrff5qwEhBtDLo3kuQc-13" target="bHrff5qwEhBtDLo3kuQc-17" edge="1">
          <mxGeometry relative="1" as="geometry" />
        </mxCell>
        <mxCell id="bHrff5qwEhBtDLo3kuQc-13" value="계획" style="rounded=1;whiteSpace=wrap;html=1;fontSize=12;glass=0;strokeWidth=1;shadow=0;" parent="WIyWlLk6GJQsqaUBKTNV-1" vertex="1">
          <mxGeometry x="-520" y="420" width="60" height="40" as="geometry" />
        </mxCell>
        <mxCell id="mNGhvAOt8ULC3OzizUnZ-25" style="edgeStyle=orthogonalEdgeStyle;rounded=0;orthogonalLoop=1;jettySize=auto;html=1;exitX=1;exitY=0.5;exitDx=0;exitDy=0;entryX=0;entryY=0.5;entryDx=0;entryDy=0;" edge="1" parent="WIyWlLk6GJQsqaUBKTNV-1" source="bHrff5qwEhBtDLo3kuQc-17" target="mNGhvAOt8ULC3OzizUnZ-21">
          <mxGeometry relative="1" as="geometry" />
        </mxCell>
        <mxCell id="bHrff5qwEhBtDLo3kuQc-17" value="계획승인" style="rounded=1;whiteSpace=wrap;html=1;fontSize=12;glass=0;strokeWidth=1;shadow=0;" parent="WIyWlLk6GJQsqaUBKTNV-1" vertex="1">
          <mxGeometry x="-420" y="420" width="60" height="40" as="geometry" />
        </mxCell>
        <mxCell id="bHrff5qwEhBtDLo3kuQc-23" value="배포요청" style="rounded=1;whiteSpace=wrap;html=1;fontSize=12;glass=0;strokeWidth=1;shadow=0;" parent="WIyWlLk6GJQsqaUBKTNV-1" vertex="1">
          <mxGeometry x="37.5" y="420" width="60" height="40" as="geometry" />
        </mxCell>
        <mxCell id="bHrff5qwEhBtDLo3kuQc-24" style="edgeStyle=orthogonalEdgeStyle;rounded=0;orthogonalLoop=1;jettySize=auto;html=1;exitX=1;exitY=0.5;exitDx=0;exitDy=0;" parent="WIyWlLk6GJQsqaUBKTNV-1" edge="1">
          <mxGeometry relative="1" as="geometry">
            <mxPoint x="157.5" y="440" as="targetPoint" />
            <mxPoint x="97.5" y="440" as="sourcePoint" />
          </mxGeometry>
        </mxCell>
        <mxCell id="bHrff5qwEhBtDLo3kuQc-25" value="배포승인" style="rounded=1;whiteSpace=wrap;html=1;fontSize=12;glass=0;strokeWidth=1;shadow=0;fontStyle=1;fillColor=#f8cecc;strokeColor=#b85450;" parent="WIyWlLk6GJQsqaUBKTNV-1" vertex="1">
          <mxGeometry x="157.5" y="420" width="60" height="40" as="geometry" />
        </mxCell>
        <mxCell id="bHrff5qwEhBtDLo3kuQc-26" style="edgeStyle=orthogonalEdgeStyle;rounded=0;orthogonalLoop=1;jettySize=auto;html=1;exitX=1;exitY=0.5;exitDx=0;exitDy=0;" parent="WIyWlLk6GJQsqaUBKTNV-1" edge="1">
          <mxGeometry relative="1" as="geometry">
            <mxPoint x="277.5" y="440" as="targetPoint" />
            <mxPoint x="217.5" y="440" as="sourcePoint" />
          </mxGeometry>
        </mxCell>
        <mxCell id="bHrff5qwEhBtDLo3kuQc-27" value="처리확인" style="rounded=1;whiteSpace=wrap;html=1;fontSize=12;glass=0;strokeWidth=1;shadow=0;fillColor=#EFF4FC;strokeColor=#6c8ebf;fontStyle=1;" parent="WIyWlLk6GJQsqaUBKTNV-1" vertex="1">
          <mxGeometry x="277.5" y="420" width="60" height="40" as="geometry" />
        </mxCell>
        <mxCell id="bHrff5qwEhBtDLo3kuQc-28" value="S/R" style="text;html=1;align=center;verticalAlign=middle;resizable=0;points=[];autosize=1;strokeColor=none;fillColor=none;fontColor=#FF8000;" parent="WIyWlLk6GJQsqaUBKTNV-1" vertex="1">
          <mxGeometry x="-795" y="390" width="40" height="30" as="geometry" />
        </mxCell>
        <mxCell id="bHrff5qwEhBtDLo3kuQc-29" value="S/R" style="text;html=1;align=center;verticalAlign=middle;resizable=0;points=[];autosize=1;strokeColor=none;fillColor=none;fontColor=#FF8000;" parent="WIyWlLk6GJQsqaUBKTNV-1" vertex="1">
          <mxGeometry x="-710" y="390" width="40" height="30" as="geometry" />
        </mxCell>
        <mxCell id="bHrff5qwEhBtDLo3kuQc-30" value="C/R" style="text;html=1;align=center;verticalAlign=middle;resizable=0;points=[];autosize=1;strokeColor=none;fillColor=none;fontColor=#3333FF;" parent="WIyWlLk6GJQsqaUBKTNV-1" vertex="1">
          <mxGeometry x="-510" y="390" width="40" height="30" as="geometry" />
        </mxCell>
        <mxCell id="bHrff5qwEhBtDLo3kuQc-31" value="C/R" style="text;html=1;align=center;verticalAlign=middle;resizable=0;points=[];autosize=1;strokeColor=none;fillColor=none;fontColor=#3333FF;" parent="WIyWlLk6GJQsqaUBKTNV-1" vertex="1">
          <mxGeometry x="-410" y="390" width="40" height="30" as="geometry" />
        </mxCell>
        <mxCell id="bHrff5qwEhBtDLo3kuQc-32" value="C/R" style="text;html=1;align=center;verticalAlign=middle;resizable=0;points=[];autosize=1;strokeColor=none;fillColor=none;fontColor=#3333FF;" parent="WIyWlLk6GJQsqaUBKTNV-1" vertex="1">
          <mxGeometry x="-77.5" y="370" width="40" height="30" as="geometry" />
        </mxCell>
        <mxCell id="bHrff5qwEhBtDLo3kuQc-34" value="C/R" style="text;html=1;align=center;verticalAlign=middle;resizable=0;points=[];autosize=1;strokeColor=none;fillColor=none;fontColor=#3333FF;" parent="WIyWlLk6GJQsqaUBKTNV-1" vertex="1">
          <mxGeometry x="47.5" y="390" width="40" height="30" as="geometry" />
        </mxCell>
        <mxCell id="bHrff5qwEhBtDLo3kuQc-35" value="C/R" style="text;html=1;align=center;verticalAlign=middle;resizable=0;points=[];autosize=1;strokeColor=none;fillColor=none;fontColor=#3333FF;" parent="WIyWlLk6GJQsqaUBKTNV-1" vertex="1">
          <mxGeometry x="167.5" y="390" width="40" height="30" as="geometry" />
        </mxCell>
        <mxCell id="bHrff5qwEhBtDLo3kuQc-41" style="edgeStyle=orthogonalEdgeStyle;rounded=0;orthogonalLoop=1;jettySize=auto;html=1;exitX=0.5;exitY=1;exitDx=0;exitDy=0;entryX=0;entryY=0.5;entryDx=0;entryDy=0;" parent="WIyWlLk6GJQsqaUBKTNV-1" source="bHrff5qwEhBtDLo3kuQc-37" target="bHrff5qwEhBtDLo3kuQc-47" edge="1">
          <mxGeometry relative="1" as="geometry">
            <mxPoint x="-590" y="780" as="targetPoint" />
            <Array as="points">
              <mxPoint x="-590" y="475" />
              <mxPoint x="-590" y="675" />
            </Array>
          </mxGeometry>
        </mxCell>
        <mxCell id="bHrff5qwEhBtDLo3kuQc-37" value="긴급여부" style="rhombus;whiteSpace=wrap;html=1;" parent="WIyWlLk6GJQsqaUBKTNV-1" vertex="1">
          <mxGeometry x="-620" y="405" width="63.5" height="70" as="geometry" />
        </mxCell>
        <mxCell id="bHrff5qwEhBtDLo3kuQc-39" value="정상건" style="text;html=1;align=center;verticalAlign=middle;resizable=0;points=[];autosize=1;strokeColor=none;fillColor=none;fontStyle=1" parent="WIyWlLk6GJQsqaUBKTNV-1" vertex="1">
          <mxGeometry x="-580" y="400" width="60" height="30" as="geometry" />
        </mxCell>
        <mxCell id="bHrff5qwEhBtDLo3kuQc-40" value="긴급건" style="text;html=1;align=center;verticalAlign=middle;resizable=0;points=[];autosize=1;strokeColor=none;fillColor=none;fontStyle=3;fontColor=#FF3333;" parent="WIyWlLk6GJQsqaUBKTNV-1" vertex="1">
          <mxGeometry x="-650" y="490" width="60" height="30" as="geometry" />
        </mxCell>
        <mxCell id="mNGhvAOt8ULC3OzizUnZ-27" style="edgeStyle=orthogonalEdgeStyle;rounded=0;orthogonalLoop=1;jettySize=auto;html=1;exitX=1;exitY=0.5;exitDx=0;exitDy=0;entryX=0;entryY=0.5;entryDx=0;entryDy=0;" edge="1" parent="WIyWlLk6GJQsqaUBKTNV-1" source="bHrff5qwEhBtDLo3kuQc-47" target="mNGhvAOt8ULC3OzizUnZ-23">
          <mxGeometry relative="1" as="geometry" />
        </mxCell>
        <mxCell id="bHrff5qwEhBtDLo3kuQc-47" value="계획" style="rounded=1;whiteSpace=wrap;html=1;fontSize=12;glass=0;strokeWidth=1;shadow=0;" parent="WIyWlLk6GJQsqaUBKTNV-1" vertex="1">
          <mxGeometry x="-530" y="655" width="60" height="40" as="geometry" />
        </mxCell>
        <mxCell id="bHrff5qwEhBtDLo3kuQc-48" value="C/R" style="text;html=1;align=center;verticalAlign=middle;resizable=0;points=[];autosize=1;strokeColor=none;fillColor=none;fontColor=#3333FF;" parent="WIyWlLk6GJQsqaUBKTNV-1" vertex="1">
          <mxGeometry x="-520" y="625" width="40" height="30" as="geometry" />
        </mxCell>
        <mxCell id="bHrff5qwEhBtDLo3kuQc-50" value="C/R" style="text;html=1;align=center;verticalAlign=middle;resizable=0;points=[];autosize=1;strokeColor=none;fillColor=none;fontColor=#3333FF;" parent="WIyWlLk6GJQsqaUBKTNV-1" vertex="1">
          <mxGeometry x="-77.5" y="605" width="40" height="30" as="geometry" />
        </mxCell>
        <mxCell id="bHrff5qwEhBtDLo3kuQc-70" style="edgeStyle=orthogonalEdgeStyle;rounded=0;orthogonalLoop=1;jettySize=auto;html=1;exitX=0.5;exitY=1;exitDx=0;exitDy=0;entryX=0;entryY=0.5;entryDx=0;entryDy=0;" parent="WIyWlLk6GJQsqaUBKTNV-1" source="bHrff5qwEhBtDLo3kuQc-67" edge="1" target="bHrff5qwEhBtDLo3kuQc-71">
          <mxGeometry relative="1" as="geometry">
            <mxPoint x="7.5" y="570" as="targetPoint" />
            <Array as="points">
              <mxPoint x="-47.5" y="570" />
            </Array>
          </mxGeometry>
        </mxCell>
        <mxCell id="mNGhvAOt8ULC3OzizUnZ-6" style="edgeStyle=orthogonalEdgeStyle;rounded=0;orthogonalLoop=1;jettySize=auto;html=1;exitX=1;exitY=0.5;exitDx=0;exitDy=0;entryX=0;entryY=0.5;entryDx=0;entryDy=0;" edge="1" parent="WIyWlLk6GJQsqaUBKTNV-1" source="bHrff5qwEhBtDLo3kuQc-67" target="bHrff5qwEhBtDLo3kuQc-23">
          <mxGeometry relative="1" as="geometry" />
        </mxCell>
        <mxCell id="bHrff5qwEhBtDLo3kuQc-67" value="&lt;b&gt;QA테스트 가능 여부&lt;/b&gt;" style="rhombus;whiteSpace=wrap;html=1;" parent="WIyWlLk6GJQsqaUBKTNV-1" vertex="1">
          <mxGeometry x="-82.5" y="402.5" width="70" height="75" as="geometry" />
        </mxCell>
        <mxCell id="bHrff5qwEhBtDLo3kuQc-68" value="가능" style="text;html=1;align=center;verticalAlign=middle;resizable=0;points=[];autosize=1;strokeColor=none;fillColor=none;fontStyle=1" parent="WIyWlLk6GJQsqaUBKTNV-1" vertex="1">
          <mxGeometry x="-27.5" y="400" width="50" height="30" as="geometry" />
        </mxCell>
        <mxCell id="bHrff5qwEhBtDLo3kuQc-69" value="불가능&lt;br&gt;Live 테스트" style="text;html=1;align=center;verticalAlign=middle;resizable=0;points=[];autosize=1;strokeColor=none;fillColor=none;fontStyle=3;fontColor=#FF3333;" parent="WIyWlLk6GJQsqaUBKTNV-1" vertex="1">
          <mxGeometry x="-137.5" y="450" width="90" height="40" as="geometry" />
        </mxCell>
        <mxCell id="bHrff5qwEhBtDLo3kuQc-83" style="edgeStyle=orthogonalEdgeStyle;rounded=0;orthogonalLoop=1;jettySize=auto;html=1;exitX=1;exitY=0.5;exitDx=0;exitDy=0;entryX=0;entryY=0.5;entryDx=0;entryDy=0;" parent="WIyWlLk6GJQsqaUBKTNV-1" source="bHrff5qwEhBtDLo3kuQc-71" target="bHrff5qwEhBtDLo3kuQc-74" edge="1">
          <mxGeometry relative="1" as="geometry" />
        </mxCell>
        <mxCell id="bHrff5qwEhBtDLo3kuQc-71" value="배포요청" style="rounded=1;whiteSpace=wrap;html=1;fontSize=12;glass=0;strokeWidth=1;shadow=0;fontStyle=0" parent="WIyWlLk6GJQsqaUBKTNV-1" vertex="1">
          <mxGeometry x="37.5" y="550" width="60" height="40" as="geometry" />
        </mxCell>
        <mxCell id="bHrff5qwEhBtDLo3kuQc-73" value="C/R" style="text;html=1;align=center;verticalAlign=middle;resizable=0;points=[];autosize=1;strokeColor=none;fillColor=none;fontColor=#3333FF;" parent="WIyWlLk6GJQsqaUBKTNV-1" vertex="1">
          <mxGeometry x="47.5" y="520" width="40" height="30" as="geometry" />
        </mxCell>
        <mxCell id="bHrff5qwEhBtDLo3kuQc-89" style="edgeStyle=orthogonalEdgeStyle;rounded=0;orthogonalLoop=1;jettySize=auto;html=1;exitX=1;exitY=0.5;exitDx=0;exitDy=0;entryX=0;entryY=0.5;entryDx=0;entryDy=0;" parent="WIyWlLk6GJQsqaUBKTNV-1" source="bHrff5qwEhBtDLo3kuQc-74" target="bHrff5qwEhBtDLo3kuQc-84" edge="1">
          <mxGeometry relative="1" as="geometry" />
        </mxCell>
        <mxCell id="bHrff5qwEhBtDLo3kuQc-74" value="배포승인" style="rounded=1;whiteSpace=wrap;html=1;fontSize=12;glass=0;strokeWidth=1;shadow=0;fillColor=#f8cecc;strokeColor=#b85450;fontStyle=1" parent="WIyWlLk6GJQsqaUBKTNV-1" vertex="1">
          <mxGeometry x="157.5" y="550" width="70" height="40" as="geometry" />
        </mxCell>
        <mxCell id="bHrff5qwEhBtDLo3kuQc-75" value="C/R" style="text;html=1;align=center;verticalAlign=middle;resizable=0;points=[];autosize=1;strokeColor=none;fillColor=none;fontColor=#3333FF;" parent="WIyWlLk6GJQsqaUBKTNV-1" vertex="1">
          <mxGeometry x="172.5" y="520" width="40" height="30" as="geometry" />
        </mxCell>
        <mxCell id="bHrff5qwEhBtDLo3kuQc-90" style="edgeStyle=orthogonalEdgeStyle;rounded=0;orthogonalLoop=1;jettySize=auto;html=1;exitX=1;exitY=0.5;exitDx=0;exitDy=0;entryX=0;entryY=0.5;entryDx=0;entryDy=0;" parent="WIyWlLk6GJQsqaUBKTNV-1" source="bHrff5qwEhBtDLo3kuQc-84" target="bHrff5qwEhBtDLo3kuQc-86" edge="1">
          <mxGeometry relative="1" as="geometry" />
        </mxCell>
        <mxCell id="bHrff5qwEhBtDLo3kuQc-84" value="인수테스트&lt;br style=&quot;border-color: var(--border-color);&quot;&gt;&lt;span style=&quot;&quot;&gt;Live Server&lt;/span&gt;" style="rounded=1;whiteSpace=wrap;html=1;fontSize=12;glass=0;strokeWidth=1;shadow=0;fontStyle=1;fillColor=#EFF4FC;strokeColor=#6c8ebf;" parent="WIyWlLk6GJQsqaUBKTNV-1" vertex="1">
          <mxGeometry x="277.5" y="550" width="70" height="40" as="geometry" />
        </mxCell>
        <mxCell id="bHrff5qwEhBtDLo3kuQc-86" value="처리확인" style="rounded=1;whiteSpace=wrap;html=1;fontSize=12;glass=0;strokeWidth=1;shadow=0;fillColor=#EFF4FC;strokeColor=#6c8ebf;fontStyle=1;" parent="WIyWlLk6GJQsqaUBKTNV-1" vertex="1">
          <mxGeometry x="387.5" y="550" width="60" height="40" as="geometry" />
        </mxCell>
        <mxCell id="bHrff5qwEhBtDLo3kuQc-87" value="C/R" style="text;html=1;align=center;verticalAlign=middle;resizable=0;points=[];autosize=1;strokeColor=none;fillColor=none;fontColor=#3333FF;" parent="WIyWlLk6GJQsqaUBKTNV-1" vertex="1">
          <mxGeometry x="287.5" y="520" width="40" height="30" as="geometry" />
        </mxCell>
        <mxCell id="bHrff5qwEhBtDLo3kuQc-93" value="단순 누락" style="rounded=1;whiteSpace=wrap;html=1;fontSize=12;glass=0;strokeWidth=1;shadow=0;" parent="WIyWlLk6GJQsqaUBKTNV-1" vertex="1">
          <mxGeometry x="-575" y="995" width="100" height="70" as="geometry" />
        </mxCell>
        <mxCell id="bHrff5qwEhBtDLo3kuQc-99" style="edgeStyle=orthogonalEdgeStyle;rounded=0;orthogonalLoop=1;jettySize=auto;html=1;exitX=1;exitY=0.5;exitDx=0;exitDy=0;entryX=0;entryY=0.5;entryDx=0;entryDy=0;" parent="WIyWlLk6GJQsqaUBKTNV-1" source="bHrff5qwEhBtDLo3kuQc-96" target="bHrff5qwEhBtDLo3kuQc-93" edge="1">
          <mxGeometry relative="1" as="geometry" />
        </mxCell>
        <mxCell id="bHrff5qwEhBtDLo3kuQc-107" style="edgeStyle=orthogonalEdgeStyle;rounded=0;orthogonalLoop=1;jettySize=auto;html=1;exitX=1;exitY=0.5;exitDx=0;exitDy=0;entryX=0;entryY=0.5;entryDx=0;entryDy=0;" parent="WIyWlLk6GJQsqaUBKTNV-1" source="bHrff5qwEhBtDLo3kuQc-96" target="bHrff5qwEhBtDLo3kuQc-105" edge="1">
          <mxGeometry relative="1" as="geometry">
            <Array as="points">
              <mxPoint x="-735" y="1030" />
              <mxPoint x="-735" y="1155" />
            </Array>
          </mxGeometry>
        </mxCell>
        <mxCell id="bHrff5qwEhBtDLo3kuQc-96" value="팀장 배포승인&lt;br&gt;CR문서" style="rounded=1;whiteSpace=wrap;html=1;fontSize=12;glass=0;strokeWidth=1;shadow=0;fillColor=#f8cecc;strokeColor=#b85450;fontStyle=1" parent="WIyWlLk6GJQsqaUBKTNV-1" vertex="1">
          <mxGeometry x="-795" y="980" width="120" height="100" as="geometry" />
        </mxCell>
        <mxCell id="bHrff5qwEhBtDLo3kuQc-100" value="관리번호 추가&lt;br&gt;ITSM 문서 작성" style="text;html=1;align=center;verticalAlign=middle;resizable=0;points=[];autosize=1;strokeColor=none;fillColor=none;fontStyle=1;fontSize=20;" parent="WIyWlLk6GJQsqaUBKTNV-1" vertex="1">
          <mxGeometry x="-610" y="925" width="160" height="60" as="geometry" />
        </mxCell>
        <mxCell id="bHrff5qwEhBtDLo3kuQc-109" style="edgeStyle=orthogonalEdgeStyle;rounded=0;orthogonalLoop=1;jettySize=auto;html=1;exitX=1;exitY=0.5;exitDx=0;exitDy=0;" parent="WIyWlLk6GJQsqaUBKTNV-1" source="bHrff5qwEhBtDLo3kuQc-101" edge="1">
          <mxGeometry relative="1" as="geometry">
            <mxPoint x="-185" y="1155" as="targetPoint" />
          </mxGeometry>
        </mxCell>
        <mxCell id="bHrff5qwEhBtDLo3kuQc-114" style="edgeStyle=orthogonalEdgeStyle;rounded=0;orthogonalLoop=1;jettySize=auto;html=1;exitX=0.5;exitY=1;exitDx=0;exitDy=0;entryX=0;entryY=0.5;entryDx=0;entryDy=0;" parent="WIyWlLk6GJQsqaUBKTNV-1" source="bHrff5qwEhBtDLo3kuQc-101" target="bHrff5qwEhBtDLo3kuQc-113" edge="1">
          <mxGeometry relative="1" as="geometry" />
        </mxCell>
        <mxCell id="bHrff5qwEhBtDLo3kuQc-101" value="Validation 예시:&lt;br&gt;배포승인 후 1개월 경과?" style="rhombus;whiteSpace=wrap;html=1;" parent="WIyWlLk6GJQsqaUBKTNV-1" vertex="1">
          <mxGeometry x="-425" y="1072.5" width="155" height="165" as="geometry" />
        </mxCell>
        <mxCell id="bHrff5qwEhBtDLo3kuQc-104" value="" style="endArrow=none;dashed=1;html=1;dashPattern=1 3;strokeWidth=2;rounded=0;" parent="WIyWlLk6GJQsqaUBKTNV-1" edge="1">
          <mxGeometry width="50" height="50" relative="1" as="geometry">
            <mxPoint x="-625" y="1325" as="sourcePoint" />
            <mxPoint x="-625" y="920" as="targetPoint" />
          </mxGeometry>
        </mxCell>
        <mxCell id="bHrff5qwEhBtDLo3kuQc-108" style="edgeStyle=orthogonalEdgeStyle;rounded=0;orthogonalLoop=1;jettySize=auto;html=1;exitX=1;exitY=0.5;exitDx=0;exitDy=0;entryX=0;entryY=0.5;entryDx=0;entryDy=0;" parent="WIyWlLk6GJQsqaUBKTNV-1" source="bHrff5qwEhBtDLo3kuQc-105" target="bHrff5qwEhBtDLo3kuQc-101" edge="1">
          <mxGeometry relative="1" as="geometry" />
        </mxCell>
        <mxCell id="bHrff5qwEhBtDLo3kuQc-105" value="배포 후 추가 개발(수정)" style="rounded=1;whiteSpace=wrap;html=1;fontSize=12;glass=0;strokeWidth=1;shadow=0;" parent="WIyWlLk6GJQsqaUBKTNV-1" vertex="1">
          <mxGeometry x="-575" y="1120" width="100" height="70" as="geometry" />
        </mxCell>
        <mxCell id="bHrff5qwEhBtDLo3kuQc-110" value="No" style="text;html=1;align=center;verticalAlign=middle;resizable=0;points=[];autosize=1;strokeColor=none;fillColor=none;fontSize=16;fontStyle=1" parent="WIyWlLk6GJQsqaUBKTNV-1" vertex="1">
          <mxGeometry x="-305" y="1098" width="40" height="30" as="geometry" />
        </mxCell>
        <mxCell id="bHrff5qwEhBtDLo3kuQc-112" value="자동 배포" style="rounded=1;whiteSpace=wrap;html=1;fontSize=12;glass=0;strokeWidth=1;shadow=0;fillColor=#f8cecc;strokeColor=#b85450;" parent="WIyWlLk6GJQsqaUBKTNV-1" vertex="1">
          <mxGeometry x="-185" y="1130" width="60" height="50" as="geometry" />
        </mxCell>
        <mxCell id="bHrff5qwEhBtDLo3kuQc-113" value="반려" style="rounded=1;whiteSpace=wrap;html=1;fontSize=12;glass=0;strokeWidth=1;shadow=0;fillColor=#fff2cc;strokeColor=#d6b656;" parent="WIyWlLk6GJQsqaUBKTNV-1" vertex="1">
          <mxGeometry x="-185" y="1280" width="60" height="40" as="geometry" />
        </mxCell>
        <mxCell id="bHrff5qwEhBtDLo3kuQc-115" value="Yes" style="text;html=1;align=center;verticalAlign=middle;resizable=0;points=[];autosize=1;strokeColor=none;fillColor=none;fontSize=16;fontStyle=1" parent="WIyWlLk6GJQsqaUBKTNV-1" vertex="1">
          <mxGeometry x="-420" y="1207.5" width="50" height="30" as="geometry" />
        </mxCell>
        <mxCell id="-poH_1AGBU1u-PjEJNl7-32" value="배포요청" style="rounded=1;whiteSpace=wrap;html=1;fontSize=12;glass=0;strokeWidth=1;shadow=0;fontStyle=1;fillColor=#f8cecc;strokeColor=#b85450;" parent="WIyWlLk6GJQsqaUBKTNV-1" vertex="1">
          <mxGeometry x="57.5" y="655" width="60" height="40" as="geometry" />
        </mxCell>
        <mxCell id="-poH_1AGBU1u-PjEJNl7-33" style="edgeStyle=orthogonalEdgeStyle;rounded=0;orthogonalLoop=1;jettySize=auto;html=1;exitX=1;exitY=0.5;exitDx=0;exitDy=0;" parent="WIyWlLk6GJQsqaUBKTNV-1" edge="1">
          <mxGeometry relative="1" as="geometry">
            <mxPoint x="177.5" y="675" as="targetPoint" />
            <mxPoint x="117.5" y="675" as="sourcePoint" />
          </mxGeometry>
        </mxCell>
        <mxCell id="-poH_1AGBU1u-PjEJNl7-35" style="edgeStyle=orthogonalEdgeStyle;rounded=0;orthogonalLoop=1;jettySize=auto;html=1;exitX=1;exitY=0.5;exitDx=0;exitDy=0;" parent="WIyWlLk6GJQsqaUBKTNV-1" source="-poH_1AGBU1u-PjEJNl7-34" edge="1">
          <mxGeometry relative="1" as="geometry">
            <mxPoint x="297.5" y="675" as="targetPoint" />
            <mxPoint x="257.5" y="675" as="sourcePoint" />
          </mxGeometry>
        </mxCell>
        <mxCell id="-poH_1AGBU1u-PjEJNl7-36" value="처리확인" style="rounded=1;whiteSpace=wrap;html=1;fontSize=12;glass=0;strokeWidth=1;shadow=0;fillColor=#EFF4FC;strokeColor=#6c8ebf;fontStyle=1;" parent="WIyWlLk6GJQsqaUBKTNV-1" vertex="1">
          <mxGeometry x="297.5" y="655" width="60" height="40" as="geometry" />
        </mxCell>
        <mxCell id="-poH_1AGBU1u-PjEJNl7-38" value="C/R" style="text;html=1;align=center;verticalAlign=middle;resizable=0;points=[];autosize=1;strokeColor=none;fillColor=none;fontColor=#3333FF;" parent="WIyWlLk6GJQsqaUBKTNV-1" vertex="1">
          <mxGeometry x="67.5" y="625" width="40" height="30" as="geometry" />
        </mxCell>
        <mxCell id="-poH_1AGBU1u-PjEJNl7-39" value="C/R" style="text;html=1;align=center;verticalAlign=middle;resizable=0;points=[];autosize=1;strokeColor=none;fillColor=none;fontColor=#3333FF;" parent="WIyWlLk6GJQsqaUBKTNV-1" vertex="1">
          <mxGeometry x="187.5" y="625" width="40" height="30" as="geometry" />
        </mxCell>
        <mxCell id="-poH_1AGBU1u-PjEJNl7-41" style="edgeStyle=orthogonalEdgeStyle;rounded=0;orthogonalLoop=1;jettySize=auto;html=1;exitX=0.5;exitY=1;exitDx=0;exitDy=0;entryX=0;entryY=0.5;entryDx=0;entryDy=0;" parent="WIyWlLk6GJQsqaUBKTNV-1" source="-poH_1AGBU1u-PjEJNl7-42" edge="1" target="-poH_1AGBU1u-PjEJNl7-46">
          <mxGeometry relative="1" as="geometry">
            <mxPoint x="7.5" y="805" as="targetPoint" />
            <Array as="points">
              <mxPoint x="-47.5" y="805" />
            </Array>
          </mxGeometry>
        </mxCell>
        <mxCell id="mNGhvAOt8ULC3OzizUnZ-11" style="edgeStyle=orthogonalEdgeStyle;rounded=0;orthogonalLoop=1;jettySize=auto;html=1;exitX=1;exitY=0.5;exitDx=0;exitDy=0;entryX=0;entryY=0.5;entryDx=0;entryDy=0;" edge="1" parent="WIyWlLk6GJQsqaUBKTNV-1" source="-poH_1AGBU1u-PjEJNl7-42" target="-poH_1AGBU1u-PjEJNl7-32">
          <mxGeometry relative="1" as="geometry" />
        </mxCell>
        <mxCell id="-poH_1AGBU1u-PjEJNl7-42" value="&lt;b style=&quot;border-color: var(--border-color);&quot;&gt;QA테스트 가능 여부&lt;/b&gt;" style="rhombus;whiteSpace=wrap;html=1;" parent="WIyWlLk6GJQsqaUBKTNV-1" vertex="1">
          <mxGeometry x="-82.5" y="637.5" width="70" height="75" as="geometry" />
        </mxCell>
        <mxCell id="-poH_1AGBU1u-PjEJNl7-43" value="가능" style="text;html=1;align=center;verticalAlign=middle;resizable=0;points=[];autosize=1;strokeColor=none;fillColor=none;fontStyle=1" parent="WIyWlLk6GJQsqaUBKTNV-1" vertex="1">
          <mxGeometry x="-27.5" y="635" width="50" height="30" as="geometry" />
        </mxCell>
        <mxCell id="-poH_1AGBU1u-PjEJNl7-44" value="불가능&lt;br style=&quot;border-color: var(--border-color);&quot;&gt;Live 테스트" style="text;html=1;align=center;verticalAlign=middle;resizable=0;points=[];autosize=1;strokeColor=none;fillColor=none;fontStyle=3;fontColor=#FF3333;" parent="WIyWlLk6GJQsqaUBKTNV-1" vertex="1">
          <mxGeometry x="-147.5" y="690" width="90" height="40" as="geometry" />
        </mxCell>
        <mxCell id="-poH_1AGBU1u-PjEJNl7-45" style="edgeStyle=orthogonalEdgeStyle;rounded=0;orthogonalLoop=1;jettySize=auto;html=1;exitX=1;exitY=0.5;exitDx=0;exitDy=0;entryX=0;entryY=0.5;entryDx=0;entryDy=0;" parent="WIyWlLk6GJQsqaUBKTNV-1" source="-poH_1AGBU1u-PjEJNl7-46" target="-poH_1AGBU1u-PjEJNl7-49" edge="1">
          <mxGeometry relative="1" as="geometry" />
        </mxCell>
        <mxCell id="-poH_1AGBU1u-PjEJNl7-46" value="배포요청" style="rounded=1;whiteSpace=wrap;html=1;fontSize=12;glass=0;strokeWidth=1;shadow=0;fillColor=#f8cecc;strokeColor=#b85450;fontStyle=1" parent="WIyWlLk6GJQsqaUBKTNV-1" vertex="1">
          <mxGeometry x="57.5" y="785" width="60" height="40" as="geometry" />
        </mxCell>
        <mxCell id="-poH_1AGBU1u-PjEJNl7-47" value="C/R" style="text;html=1;align=center;verticalAlign=middle;resizable=0;points=[];autosize=1;strokeColor=none;fillColor=none;fontColor=#3333FF;" parent="WIyWlLk6GJQsqaUBKTNV-1" vertex="1">
          <mxGeometry x="67.5" y="755" width="40" height="30" as="geometry" />
        </mxCell>
        <mxCell id="-poH_1AGBU1u-PjEJNl7-48" style="edgeStyle=orthogonalEdgeStyle;rounded=0;orthogonalLoop=1;jettySize=auto;html=1;exitX=1;exitY=0.5;exitDx=0;exitDy=0;entryX=0;entryY=0.5;entryDx=0;entryDy=0;" parent="WIyWlLk6GJQsqaUBKTNV-1" source="-poH_1AGBU1u-PjEJNl7-49" target="-poH_1AGBU1u-PjEJNl7-53" edge="1">
          <mxGeometry relative="1" as="geometry" />
        </mxCell>
        <mxCell id="-poH_1AGBU1u-PjEJNl7-49" value="인수테스트&lt;br style=&quot;border-color: var(--border-color);&quot;&gt;&lt;span style=&quot;border-color: var(--border-color);&quot;&gt;Live Server&lt;/span&gt;" style="rounded=1;whiteSpace=wrap;html=1;fontSize=12;glass=0;strokeWidth=1;shadow=0;fillColor=#EFF4FC;strokeColor=#6c8ebf;fontStyle=1" parent="WIyWlLk6GJQsqaUBKTNV-1" vertex="1">
          <mxGeometry x="167.5" y="785" width="70" height="40" as="geometry" />
        </mxCell>
        <mxCell id="-poH_1AGBU1u-PjEJNl7-50" value="C/R" style="text;html=1;align=center;verticalAlign=middle;resizable=0;points=[];autosize=1;strokeColor=none;fillColor=none;fontColor=#3333FF;" parent="WIyWlLk6GJQsqaUBKTNV-1" vertex="1">
          <mxGeometry x="182.5" y="755" width="40" height="30" as="geometry" />
        </mxCell>
        <mxCell id="-poH_1AGBU1u-PjEJNl7-52" style="edgeStyle=orthogonalEdgeStyle;rounded=0;orthogonalLoop=1;jettySize=auto;html=1;exitX=1;exitY=0.5;exitDx=0;exitDy=0;entryX=0;entryY=0.5;entryDx=0;entryDy=0;" parent="WIyWlLk6GJQsqaUBKTNV-1" source="-poH_1AGBU1u-PjEJNl7-53" target="-poH_1AGBU1u-PjEJNl7-54" edge="1">
          <mxGeometry relative="1" as="geometry" />
        </mxCell>
        <mxCell id="-poH_1AGBU1u-PjEJNl7-53" value="배포승인&lt;br&gt;(사후)" style="rounded=1;whiteSpace=wrap;html=1;fontSize=12;glass=0;strokeWidth=1;shadow=0;fontStyle=0;fillColor=#fff2cc;strokeColor=#d6b656;" parent="WIyWlLk6GJQsqaUBKTNV-1" vertex="1">
          <mxGeometry x="287.5" y="785" width="70" height="40" as="geometry" />
        </mxCell>
        <mxCell id="-poH_1AGBU1u-PjEJNl7-54" value="처리확인" style="rounded=1;whiteSpace=wrap;html=1;fontSize=12;glass=0;strokeWidth=1;shadow=0;fillColor=#EFF4FC;strokeColor=#6c8ebf;fontStyle=1;" parent="WIyWlLk6GJQsqaUBKTNV-1" vertex="1">
          <mxGeometry x="397.5" y="785" width="60" height="40" as="geometry" />
        </mxCell>
        <mxCell id="-poH_1AGBU1u-PjEJNl7-55" value="C/R" style="text;html=1;align=center;verticalAlign=middle;resizable=0;points=[];autosize=1;strokeColor=none;fillColor=none;fontColor=#3333FF;" parent="WIyWlLk6GJQsqaUBKTNV-1" vertex="1">
          <mxGeometry x="297.5" y="755" width="40" height="30" as="geometry" />
        </mxCell>
        <mxCell id="-poH_1AGBU1u-PjEJNl7-58" value="계획승인 단계 생략" style="text;html=1;align=center;verticalAlign=middle;resizable=0;points=[];autosize=1;strokeColor=none;fillColor=none;fontStyle=1;fontColor=#FF8000;" parent="WIyWlLk6GJQsqaUBKTNV-1" vertex="1">
          <mxGeometry x="-455" y="637.5" width="130" height="30" as="geometry" />
        </mxCell>
        <mxCell id="-poH_1AGBU1u-PjEJNl7-237" style="edgeStyle=orthogonalEdgeStyle;rounded=0;orthogonalLoop=1;jettySize=auto;html=1;exitX=1;exitY=0.5;exitDx=0;exitDy=0;entryX=0;entryY=0.5;entryDx=0;entryDy=0;" parent="WIyWlLk6GJQsqaUBKTNV-1" source="-poH_1AGBU1u-PjEJNl7-238" target="-poH_1AGBU1u-PjEJNl7-241" edge="1">
          <mxGeometry relative="1" as="geometry" />
        </mxCell>
        <mxCell id="-poH_1AGBU1u-PjEJNl7-238" value="요청" style="rounded=1;whiteSpace=wrap;html=1;fontSize=12;glass=0;strokeWidth=1;shadow=0;fillColor=#EFF4FC;strokeColor=#6c8ebf;" parent="WIyWlLk6GJQsqaUBKTNV-1" vertex="1">
          <mxGeometry x="-800" y="150" width="50" height="40" as="geometry" />
        </mxCell>
        <mxCell id="-poH_1AGBU1u-PjEJNl7-239" style="edgeStyle=orthogonalEdgeStyle;rounded=0;orthogonalLoop=1;jettySize=auto;html=1;entryX=0;entryY=0.5;entryDx=0;entryDy=0;" parent="WIyWlLk6GJQsqaUBKTNV-1" source="-poH_1AGBU1u-PjEJNl7-263" target="-poH_1AGBU1u-PjEJNl7-243" edge="1">
          <mxGeometry relative="1" as="geometry">
            <mxPoint x="-560" y="170" as="targetPoint" />
            <mxPoint x="-620" y="170" as="sourcePoint" />
          </mxGeometry>
        </mxCell>
        <mxCell id="-poH_1AGBU1u-PjEJNl7-240" style="edgeStyle=orthogonalEdgeStyle;rounded=0;orthogonalLoop=1;jettySize=auto;html=1;exitX=1;exitY=0.5;exitDx=0;exitDy=0;entryX=0;entryY=0.5;entryDx=0;entryDy=0;" parent="WIyWlLk6GJQsqaUBKTNV-1" source="-poH_1AGBU1u-PjEJNl7-241" target="-poH_1AGBU1u-PjEJNl7-263" edge="1">
          <mxGeometry relative="1" as="geometry" />
        </mxCell>
        <mxCell id="-poH_1AGBU1u-PjEJNl7-241" value="요청접수" style="rounded=1;whiteSpace=wrap;html=1;fontSize=12;glass=0;strokeWidth=1;shadow=0;fillColor=#EFF4FC;strokeColor=#6c8ebf;" parent="WIyWlLk6GJQsqaUBKTNV-1" vertex="1">
          <mxGeometry x="-720" y="150" width="60" height="40" as="geometry" />
        </mxCell>
        <mxCell id="-poH_1AGBU1u-PjEJNl7-242" style="edgeStyle=orthogonalEdgeStyle;rounded=0;orthogonalLoop=1;jettySize=auto;html=1;exitX=1;exitY=0.5;exitDx=0;exitDy=0;entryX=0;entryY=0.5;entryDx=0;entryDy=0;" parent="WIyWlLk6GJQsqaUBKTNV-1" source="-poH_1AGBU1u-PjEJNl7-243" target="-poH_1AGBU1u-PjEJNl7-244" edge="1">
          <mxGeometry relative="1" as="geometry" />
        </mxCell>
        <mxCell id="-poH_1AGBU1u-PjEJNl7-243" value="계획" style="rounded=1;whiteSpace=wrap;html=1;fontSize=12;glass=0;strokeWidth=1;shadow=0;" parent="WIyWlLk6GJQsqaUBKTNV-1" vertex="1">
          <mxGeometry x="-520" y="150" width="60" height="40" as="geometry" />
        </mxCell>
        <mxCell id="-poH_1AGBU1u-PjEJNl7-244" value="계획승인" style="rounded=1;whiteSpace=wrap;html=1;fontSize=12;glass=0;strokeWidth=1;shadow=0;" parent="WIyWlLk6GJQsqaUBKTNV-1" vertex="1">
          <mxGeometry x="-420" y="150" width="60" height="40" as="geometry" />
        </mxCell>
        <mxCell id="-poH_1AGBU1u-PjEJNl7-245" style="edgeStyle=orthogonalEdgeStyle;rounded=0;orthogonalLoop=1;jettySize=auto;html=1;exitX=1;exitY=0.5;exitDx=0;exitDy=0;entryX=0;entryY=0.5;entryDx=0;entryDy=0;" parent="WIyWlLk6GJQsqaUBKTNV-1" source="-poH_1AGBU1u-PjEJNl7-244" target="-poH_1AGBU1u-PjEJNl7-247" edge="1">
          <mxGeometry relative="1" as="geometry">
            <mxPoint x="-200" y="170" as="targetPoint" />
            <mxPoint x="-260" y="170" as="sourcePoint" />
          </mxGeometry>
        </mxCell>
        <mxCell id="-poH_1AGBU1u-PjEJNl7-246" style="edgeStyle=orthogonalEdgeStyle;rounded=0;orthogonalLoop=1;jettySize=auto;html=1;exitX=1;exitY=0.5;exitDx=0;exitDy=0;entryX=0;entryY=0.5;entryDx=0;entryDy=0;" parent="WIyWlLk6GJQsqaUBKTNV-1" source="-poH_1AGBU1u-PjEJNl7-247" target="-poH_1AGBU1u-PjEJNl7-248" edge="1">
          <mxGeometry relative="1" as="geometry" />
        </mxCell>
        <mxCell id="-poH_1AGBU1u-PjEJNl7-247" value="인수테스트&lt;br&gt;QA Server" style="rounded=1;whiteSpace=wrap;html=1;fontSize=12;glass=0;strokeWidth=1;shadow=0;fillColor=#EFF4FC;strokeColor=#6c8ebf;" parent="WIyWlLk6GJQsqaUBKTNV-1" vertex="1">
          <mxGeometry x="-320" y="150" width="70" height="40" as="geometry" />
        </mxCell>
        <mxCell id="-poH_1AGBU1u-PjEJNl7-248" value="배포요청" style="rounded=1;whiteSpace=wrap;html=1;fontSize=12;glass=0;strokeWidth=1;shadow=0;" parent="WIyWlLk6GJQsqaUBKTNV-1" vertex="1">
          <mxGeometry x="-200" y="150" width="60" height="40" as="geometry" />
        </mxCell>
        <mxCell id="-poH_1AGBU1u-PjEJNl7-249" style="edgeStyle=orthogonalEdgeStyle;rounded=0;orthogonalLoop=1;jettySize=auto;html=1;exitX=1;exitY=0.5;exitDx=0;exitDy=0;" parent="WIyWlLk6GJQsqaUBKTNV-1" edge="1">
          <mxGeometry relative="1" as="geometry">
            <mxPoint x="-80" y="170" as="targetPoint" />
            <mxPoint x="-140" y="170" as="sourcePoint" />
          </mxGeometry>
        </mxCell>
        <mxCell id="-poH_1AGBU1u-PjEJNl7-250" value="배포승인" style="rounded=1;whiteSpace=wrap;html=1;fontSize=12;glass=0;strokeWidth=1;shadow=0;fontStyle=1;fillColor=#f8cecc;strokeColor=#b85450;" parent="WIyWlLk6GJQsqaUBKTNV-1" vertex="1">
          <mxGeometry x="-80" y="150" width="60" height="40" as="geometry" />
        </mxCell>
        <mxCell id="-poH_1AGBU1u-PjEJNl7-251" style="edgeStyle=orthogonalEdgeStyle;rounded=0;orthogonalLoop=1;jettySize=auto;html=1;exitX=1;exitY=0.5;exitDx=0;exitDy=0;" parent="WIyWlLk6GJQsqaUBKTNV-1" edge="1">
          <mxGeometry relative="1" as="geometry">
            <mxPoint x="40" y="170" as="targetPoint" />
            <mxPoint x="-20" y="170" as="sourcePoint" />
          </mxGeometry>
        </mxCell>
        <mxCell id="-poH_1AGBU1u-PjEJNl7-252" value="처리확인" style="rounded=1;whiteSpace=wrap;html=1;fontSize=12;glass=0;strokeWidth=1;shadow=0;fillColor=#EFF4FC;strokeColor=#6c8ebf;fontStyle=1;" parent="WIyWlLk6GJQsqaUBKTNV-1" vertex="1">
          <mxGeometry x="40" y="150" width="60" height="40" as="geometry" />
        </mxCell>
        <mxCell id="-poH_1AGBU1u-PjEJNl7-253" value="S/R" style="text;html=1;align=center;verticalAlign=middle;resizable=0;points=[];autosize=1;strokeColor=none;fillColor=none;fontColor=#FF8000;" parent="WIyWlLk6GJQsqaUBKTNV-1" vertex="1">
          <mxGeometry x="-795" y="120" width="40" height="30" as="geometry" />
        </mxCell>
        <mxCell id="-poH_1AGBU1u-PjEJNl7-254" value="S/R" style="text;html=1;align=center;verticalAlign=middle;resizable=0;points=[];autosize=1;strokeColor=none;fillColor=none;fontColor=#FF8000;" parent="WIyWlLk6GJQsqaUBKTNV-1" vertex="1">
          <mxGeometry x="-710" y="120" width="40" height="30" as="geometry" />
        </mxCell>
        <mxCell id="-poH_1AGBU1u-PjEJNl7-255" value="C/R" style="text;html=1;align=center;verticalAlign=middle;resizable=0;points=[];autosize=1;strokeColor=none;fillColor=none;fontColor=#3333FF;" parent="WIyWlLk6GJQsqaUBKTNV-1" vertex="1">
          <mxGeometry x="-510" y="120" width="40" height="30" as="geometry" />
        </mxCell>
        <mxCell id="-poH_1AGBU1u-PjEJNl7-256" value="C/R" style="text;html=1;align=center;verticalAlign=middle;resizable=0;points=[];autosize=1;strokeColor=none;fillColor=none;fontColor=#3333FF;" parent="WIyWlLk6GJQsqaUBKTNV-1" vertex="1">
          <mxGeometry x="-410" y="120" width="40" height="30" as="geometry" />
        </mxCell>
        <mxCell id="-poH_1AGBU1u-PjEJNl7-258" value="C/R" style="text;html=1;align=center;verticalAlign=middle;resizable=0;points=[];autosize=1;strokeColor=none;fillColor=none;fontColor=#3333FF;" parent="WIyWlLk6GJQsqaUBKTNV-1" vertex="1">
          <mxGeometry x="-305" y="120" width="40" height="30" as="geometry" />
        </mxCell>
        <mxCell id="-poH_1AGBU1u-PjEJNl7-259" value="C/R" style="text;html=1;align=center;verticalAlign=middle;resizable=0;points=[];autosize=1;strokeColor=none;fillColor=none;fontColor=#3333FF;" parent="WIyWlLk6GJQsqaUBKTNV-1" vertex="1">
          <mxGeometry x="-190" y="120" width="40" height="30" as="geometry" />
        </mxCell>
        <mxCell id="-poH_1AGBU1u-PjEJNl7-260" value="C/R" style="text;html=1;align=center;verticalAlign=middle;resizable=0;points=[];autosize=1;strokeColor=none;fillColor=none;fontColor=#3333FF;" parent="WIyWlLk6GJQsqaUBKTNV-1" vertex="1">
          <mxGeometry x="-70" y="120" width="40" height="30" as="geometry" />
        </mxCell>
        <mxCell id="-poH_1AGBU1u-PjEJNl7-262" style="edgeStyle=orthogonalEdgeStyle;rounded=0;orthogonalLoop=1;jettySize=auto;html=1;exitX=0.5;exitY=1;exitDx=0;exitDy=0;entryX=0;entryY=0.5;entryDx=0;entryDy=0;" parent="WIyWlLk6GJQsqaUBKTNV-1" source="-poH_1AGBU1u-PjEJNl7-263" target="-poH_1AGBU1u-PjEJNl7-266" edge="1">
          <mxGeometry relative="1" as="geometry">
            <mxPoint x="-590" y="510" as="targetPoint" />
            <Array as="points">
              <mxPoint x="-590" y="205" />
              <mxPoint x="-590" y="270" />
            </Array>
          </mxGeometry>
        </mxCell>
        <mxCell id="-poH_1AGBU1u-PjEJNl7-263" value="긴급여부" style="rhombus;whiteSpace=wrap;html=1;" parent="WIyWlLk6GJQsqaUBKTNV-1" vertex="1">
          <mxGeometry x="-620" y="135" width="63.5" height="70" as="geometry" />
        </mxCell>
        <mxCell id="-poH_1AGBU1u-PjEJNl7-264" value="정상건" style="text;html=1;align=center;verticalAlign=middle;resizable=0;points=[];autosize=1;strokeColor=none;fillColor=none;fontStyle=1" parent="WIyWlLk6GJQsqaUBKTNV-1" vertex="1">
          <mxGeometry x="-580" y="130" width="60" height="30" as="geometry" />
        </mxCell>
        <mxCell id="-poH_1AGBU1u-PjEJNl7-265" value="긴급건" style="text;html=1;align=center;verticalAlign=middle;resizable=0;points=[];autosize=1;strokeColor=none;fillColor=none;fontStyle=3;fontColor=#FF3333;" parent="WIyWlLk6GJQsqaUBKTNV-1" vertex="1">
          <mxGeometry x="-650" y="220" width="60" height="30" as="geometry" />
        </mxCell>
        <mxCell id="-poH_1AGBU1u-PjEJNl7-266" value="계획" style="rounded=1;whiteSpace=wrap;html=1;fontSize=12;glass=0;strokeWidth=1;shadow=0;" parent="WIyWlLk6GJQsqaUBKTNV-1" vertex="1">
          <mxGeometry x="-520" y="250" width="60" height="40" as="geometry" />
        </mxCell>
        <mxCell id="-poH_1AGBU1u-PjEJNl7-267" value="C/R" style="text;html=1;align=center;verticalAlign=middle;resizable=0;points=[];autosize=1;strokeColor=none;fillColor=none;fontColor=#3333FF;" parent="WIyWlLk6GJQsqaUBKTNV-1" vertex="1">
          <mxGeometry x="-510" y="220" width="40" height="30" as="geometry" />
        </mxCell>
        <mxCell id="-poH_1AGBU1u-PjEJNl7-285" style="edgeStyle=orthogonalEdgeStyle;rounded=0;orthogonalLoop=1;jettySize=auto;html=1;exitX=1;exitY=0.5;exitDx=0;exitDy=0;entryX=0;entryY=0.5;entryDx=0;entryDy=0;" parent="WIyWlLk6GJQsqaUBKTNV-1" source="-poH_1AGBU1u-PjEJNl7-266" target="-poH_1AGBU1u-PjEJNl7-316" edge="1">
          <mxGeometry relative="1" as="geometry">
            <mxPoint x="-325" y="270" as="targetPoint" />
            <mxPoint x="-350" y="270" as="sourcePoint" />
          </mxGeometry>
        </mxCell>
        <mxCell id="-poH_1AGBU1u-PjEJNl7-312" value="계획승인 단계 생략" style="text;html=1;align=center;verticalAlign=middle;resizable=0;points=[];autosize=1;strokeColor=none;fillColor=none;fontStyle=1;fontColor=#FF8000;" parent="WIyWlLk6GJQsqaUBKTNV-1" vertex="1">
          <mxGeometry x="-445" y="230" width="130" height="30" as="geometry" />
        </mxCell>
        <mxCell id="-poH_1AGBU1u-PjEJNl7-315" style="edgeStyle=orthogonalEdgeStyle;rounded=0;orthogonalLoop=1;jettySize=auto;html=1;exitX=1;exitY=0.5;exitDx=0;exitDy=0;entryX=0;entryY=0.5;entryDx=0;entryDy=0;" parent="WIyWlLk6GJQsqaUBKTNV-1" source="-poH_1AGBU1u-PjEJNl7-316" target="-poH_1AGBU1u-PjEJNl7-317" edge="1">
          <mxGeometry relative="1" as="geometry" />
        </mxCell>
        <mxCell id="-poH_1AGBU1u-PjEJNl7-316" value="인수테스트&lt;br&gt;QA Server" style="rounded=1;whiteSpace=wrap;html=1;fontSize=12;glass=0;strokeWidth=1;shadow=0;fillColor=#EFF4FC;strokeColor=#6c8ebf;" parent="WIyWlLk6GJQsqaUBKTNV-1" vertex="1">
          <mxGeometry x="-310" y="250" width="70" height="40" as="geometry" />
        </mxCell>
        <mxCell id="-poH_1AGBU1u-PjEJNl7-317" value="배포요청" style="rounded=1;whiteSpace=wrap;html=1;fontSize=12;glass=0;strokeWidth=1;shadow=0;" parent="WIyWlLk6GJQsqaUBKTNV-1" vertex="1">
          <mxGeometry x="-190" y="250" width="60" height="40" as="geometry" />
        </mxCell>
        <mxCell id="-poH_1AGBU1u-PjEJNl7-318" style="edgeStyle=orthogonalEdgeStyle;rounded=0;orthogonalLoop=1;jettySize=auto;html=1;exitX=1;exitY=0.5;exitDx=0;exitDy=0;" parent="WIyWlLk6GJQsqaUBKTNV-1" edge="1">
          <mxGeometry relative="1" as="geometry">
            <mxPoint x="-70" y="270" as="targetPoint" />
            <mxPoint x="-130" y="270" as="sourcePoint" />
          </mxGeometry>
        </mxCell>
        <mxCell id="-poH_1AGBU1u-PjEJNl7-319" value="배포승인" style="rounded=1;whiteSpace=wrap;html=1;fontSize=12;glass=0;strokeWidth=1;shadow=0;fontStyle=1;fillColor=#f8cecc;strokeColor=#b85450;" parent="WIyWlLk6GJQsqaUBKTNV-1" vertex="1">
          <mxGeometry x="-70" y="250" width="60" height="40" as="geometry" />
        </mxCell>
        <mxCell id="-poH_1AGBU1u-PjEJNl7-320" style="edgeStyle=orthogonalEdgeStyle;rounded=0;orthogonalLoop=1;jettySize=auto;html=1;exitX=1;exitY=0.5;exitDx=0;exitDy=0;" parent="WIyWlLk6GJQsqaUBKTNV-1" edge="1">
          <mxGeometry relative="1" as="geometry">
            <mxPoint x="50" y="270" as="targetPoint" />
            <mxPoint x="-10" y="270" as="sourcePoint" />
          </mxGeometry>
        </mxCell>
        <mxCell id="-poH_1AGBU1u-PjEJNl7-321" value="처리확인" style="rounded=1;whiteSpace=wrap;html=1;fontSize=12;glass=0;strokeWidth=1;shadow=0;fillColor=#EFF4FC;strokeColor=#6c8ebf;fontStyle=1;" parent="WIyWlLk6GJQsqaUBKTNV-1" vertex="1">
          <mxGeometry x="50" y="250" width="60" height="40" as="geometry" />
        </mxCell>
        <mxCell id="-poH_1AGBU1u-PjEJNl7-323" value="C/R" style="text;html=1;align=center;verticalAlign=middle;resizable=0;points=[];autosize=1;strokeColor=none;fillColor=none;fontColor=#3333FF;" parent="WIyWlLk6GJQsqaUBKTNV-1" vertex="1">
          <mxGeometry x="-297.5" y="220" width="40" height="30" as="geometry" />
        </mxCell>
        <mxCell id="-poH_1AGBU1u-PjEJNl7-324" value="C/R" style="text;html=1;align=center;verticalAlign=middle;resizable=0;points=[];autosize=1;strokeColor=none;fillColor=none;fontColor=#3333FF;" parent="WIyWlLk6GJQsqaUBKTNV-1" vertex="1">
          <mxGeometry x="-180" y="220" width="40" height="30" as="geometry" />
        </mxCell>
        <mxCell id="-poH_1AGBU1u-PjEJNl7-325" value="C/R" style="text;html=1;align=center;verticalAlign=middle;resizable=0;points=[];autosize=1;strokeColor=none;fillColor=none;fontColor=#3333FF;" parent="WIyWlLk6GJQsqaUBKTNV-1" vertex="1">
          <mxGeometry x="-60" y="220" width="40" height="30" as="geometry" />
        </mxCell>
        <mxCell id="mNGhvAOt8ULC3OzizUnZ-3" style="edgeStyle=orthogonalEdgeStyle;rounded=0;orthogonalLoop=1;jettySize=auto;html=1;exitX=1;exitY=0.5;exitDx=0;exitDy=0;entryX=0;entryY=0.5;entryDx=0;entryDy=0;" edge="1" parent="WIyWlLk6GJQsqaUBKTNV-1" source="mNGhvAOt8ULC3OzizUnZ-0" target="bHrff5qwEhBtDLo3kuQc-67">
          <mxGeometry relative="1" as="geometry" />
        </mxCell>
        <mxCell id="mNGhvAOt8ULC3OzizUnZ-0" value="인수테스트&lt;br&gt;QA Server" style="rounded=1;whiteSpace=wrap;html=1;fontSize=12;glass=0;strokeWidth=1;shadow=0;fillColor=#EFF4FC;strokeColor=#6c8ebf;" vertex="1" parent="WIyWlLk6GJQsqaUBKTNV-1">
          <mxGeometry x="-197.5" y="420" width="70" height="40" as="geometry" />
        </mxCell>
        <mxCell id="mNGhvAOt8ULC3OzizUnZ-1" value="C/R" style="text;html=1;align=center;verticalAlign=middle;resizable=0;points=[];autosize=1;strokeColor=none;fillColor=none;fontColor=#3333FF;" vertex="1" parent="WIyWlLk6GJQsqaUBKTNV-1">
          <mxGeometry x="-185" y="390" width="40" height="30" as="geometry" />
        </mxCell>
        <mxCell id="mNGhvAOt8ULC3OzizUnZ-10" style="edgeStyle=orthogonalEdgeStyle;rounded=0;orthogonalLoop=1;jettySize=auto;html=1;exitX=1;exitY=0.5;exitDx=0;exitDy=0;entryX=0;entryY=0.5;entryDx=0;entryDy=0;" edge="1" parent="WIyWlLk6GJQsqaUBKTNV-1" source="mNGhvAOt8ULC3OzizUnZ-7" target="-poH_1AGBU1u-PjEJNl7-42">
          <mxGeometry relative="1" as="geometry" />
        </mxCell>
        <mxCell id="mNGhvAOt8ULC3OzizUnZ-7" value="인수테스트&lt;br&gt;QA Server" style="rounded=1;whiteSpace=wrap;html=1;fontSize=12;glass=0;strokeWidth=1;shadow=0;fillColor=#EFF4FC;strokeColor=#6c8ebf;" vertex="1" parent="WIyWlLk6GJQsqaUBKTNV-1">
          <mxGeometry x="-200" y="655" width="70" height="40" as="geometry" />
        </mxCell>
        <mxCell id="mNGhvAOt8ULC3OzizUnZ-8" value="C/R" style="text;html=1;align=center;verticalAlign=middle;resizable=0;points=[];autosize=1;strokeColor=none;fillColor=none;fontColor=#3333FF;" vertex="1" parent="WIyWlLk6GJQsqaUBKTNV-1">
          <mxGeometry x="-190" y="625" width="40" height="30" as="geometry" />
        </mxCell>
        <mxCell id="mNGhvAOt8ULC3OzizUnZ-12" value="S/R" style="text;html=1;align=center;verticalAlign=middle;resizable=0;points=[];autosize=1;strokeColor=none;fillColor=none;fontColor=#FF8000;" vertex="1" parent="WIyWlLk6GJQsqaUBKTNV-1">
          <mxGeometry x="50" y="120" width="40" height="30" as="geometry" />
        </mxCell>
        <mxCell id="mNGhvAOt8ULC3OzizUnZ-13" value="S/R" style="text;html=1;align=center;verticalAlign=middle;resizable=0;points=[];autosize=1;strokeColor=none;fillColor=none;fontColor=#FF8000;" vertex="1" parent="WIyWlLk6GJQsqaUBKTNV-1">
          <mxGeometry x="60" y="220" width="40" height="30" as="geometry" />
        </mxCell>
        <mxCell id="mNGhvAOt8ULC3OzizUnZ-14" value="S/R" style="text;html=1;align=center;verticalAlign=middle;resizable=0;points=[];autosize=1;strokeColor=none;fillColor=none;fontColor=#FF8000;rotation=-5;" vertex="1" parent="WIyWlLk6GJQsqaUBKTNV-1">
          <mxGeometry x="287.5" y="390" width="40" height="30" as="geometry" />
        </mxCell>
        <mxCell id="mNGhvAOt8ULC3OzizUnZ-15" value="S/R" style="text;html=1;align=center;verticalAlign=middle;resizable=0;points=[];autosize=1;strokeColor=none;fillColor=none;fontColor=#FF8000;" vertex="1" parent="WIyWlLk6GJQsqaUBKTNV-1">
          <mxGeometry x="397.5" y="520" width="40" height="30" as="geometry" />
        </mxCell>
        <mxCell id="mNGhvAOt8ULC3OzizUnZ-16" value="S/R" style="text;html=1;align=center;verticalAlign=middle;resizable=0;points=[];autosize=1;strokeColor=none;fillColor=none;fontColor=#FF8000;" vertex="1" parent="WIyWlLk6GJQsqaUBKTNV-1">
          <mxGeometry x="307.5" y="625" width="40" height="30" as="geometry" />
        </mxCell>
        <mxCell id="mNGhvAOt8ULC3OzizUnZ-17" value="S/R" style="text;html=1;align=center;verticalAlign=middle;resizable=0;points=[];autosize=1;strokeColor=none;fillColor=none;fontColor=#FF8000;" vertex="1" parent="WIyWlLk6GJQsqaUBKTNV-1">
          <mxGeometry x="407.5" y="755" width="40" height="30" as="geometry" />
        </mxCell>
        <mxCell id="mNGhvAOt8ULC3OzizUnZ-26" style="edgeStyle=orthogonalEdgeStyle;rounded=0;orthogonalLoop=1;jettySize=auto;html=1;exitX=1;exitY=0.5;exitDx=0;exitDy=0;entryX=0;entryY=0.5;entryDx=0;entryDy=0;" edge="1" parent="WIyWlLk6GJQsqaUBKTNV-1" source="mNGhvAOt8ULC3OzizUnZ-21" target="mNGhvAOt8ULC3OzizUnZ-0">
          <mxGeometry relative="1" as="geometry" />
        </mxCell>
        <mxCell id="mNGhvAOt8ULC3OzizUnZ-21" value="변경구현" style="rounded=1;whiteSpace=wrap;html=1;fontSize=12;glass=0;strokeWidth=1;shadow=0;" vertex="1" parent="WIyWlLk6GJQsqaUBKTNV-1">
          <mxGeometry x="-315" y="420" width="60" height="40" as="geometry" />
        </mxCell>
        <mxCell id="mNGhvAOt8ULC3OzizUnZ-22" value="C/R" style="text;html=1;align=center;verticalAlign=middle;resizable=0;points=[];autosize=1;strokeColor=none;fillColor=none;fontColor=#3333FF;" vertex="1" parent="WIyWlLk6GJQsqaUBKTNV-1">
          <mxGeometry x="-305" y="390" width="40" height="30" as="geometry" />
        </mxCell>
        <mxCell id="mNGhvAOt8ULC3OzizUnZ-28" style="edgeStyle=orthogonalEdgeStyle;rounded=0;orthogonalLoop=1;jettySize=auto;html=1;exitX=1;exitY=0.5;exitDx=0;exitDy=0;entryX=0;entryY=0.5;entryDx=0;entryDy=0;" edge="1" parent="WIyWlLk6GJQsqaUBKTNV-1" source="mNGhvAOt8ULC3OzizUnZ-23" target="mNGhvAOt8ULC3OzizUnZ-7">
          <mxGeometry relative="1" as="geometry" />
        </mxCell>
        <mxCell id="mNGhvAOt8ULC3OzizUnZ-23" value="변경구현" style="rounded=1;whiteSpace=wrap;html=1;fontSize=12;glass=0;strokeWidth=1;shadow=0;" vertex="1" parent="WIyWlLk6GJQsqaUBKTNV-1">
          <mxGeometry x="-315" y="655" width="60" height="40" as="geometry" />
        </mxCell>
        <mxCell id="mNGhvAOt8ULC3OzizUnZ-24" value="C/R" style="text;html=1;align=center;verticalAlign=middle;resizable=0;points=[];autosize=1;strokeColor=none;fillColor=none;fontColor=#3333FF;" vertex="1" parent="WIyWlLk6GJQsqaUBKTNV-1">
          <mxGeometry x="-305" y="625" width="40" height="30" as="geometry" />
        </mxCell>
      </root>
    </mxGraphModel>
  </diagram>
</mxfile>
